<svg xmlns="http://www.w3.org/2000/svg" xmlns:xlink="http://www.w3.org/1999/xlink" width="500" zoomAndPan="magnify" viewBox="0 0 375 374.999991" height="500" preserveAspectRatio="xMidYMid meet" version="1.0"><defs><g/></defs><g fill="#ffffff" fill-opacity="1"><g transform="translate(77.828104, 325.219352)"><g><path d="M 12.5 -31.140625 L 17.15625 -31.140625 L 29.25 0 L 24.078125 0 L 20.796875 -8.46875 L 8.765625 -8.46875 L 5.53125 0 L 0.3125 0 Z M 19.828125 -12.109375 L 14.828125 -25.75 L 9.65625 -12.109375 Z M 19.828125 -12.109375 "/></g></g></g><g fill="#ffffff" fill-opacity="1"><g transform="translate(111.638972, 325.219352)"><g><path d="M 27.984375 -8.03125 C 27.984375 -6.363281 27.550781 -4.929688 26.6875 -3.734375 C 25.820312 -2.535156 24.660156 -1.613281 23.203125 -0.96875 C 21.742188 -0.320312 20.132812 0 18.375 0 L 3.515625 0 L 3.515625 -31.140625 L 19.5625 -31.140625 C 21.019531 -31.140625 22.28125 -30.75 23.34375 -29.96875 C 24.414062 -29.195312 25.238281 -28.203125 25.8125 -26.984375 C 26.382812 -25.773438 26.671875 -24.515625 26.671875 -23.203125 C 26.671875 -21.679688 26.28125 -20.253906 25.5 -18.921875 C 24.726562 -17.597656 23.625 -16.613281 22.1875 -15.96875 C 23.976562 -15.4375 25.390625 -14.476562 26.421875 -13.09375 C 27.460938 -11.707031 27.984375 -10.019531 27.984375 -8.03125 Z M 22.9375 -8.953125 C 22.9375 -9.828125 22.753906 -10.617188 22.390625 -11.328125 C 22.023438 -12.046875 21.523438 -12.628906 20.890625 -13.078125 C 20.265625 -13.535156 19.53125 -13.765625 18.6875 -13.765625 L 8.421875 -13.765625 L 8.421875 -4.25 L 18.375 -4.25 C 19.25 -4.25 20.03125 -4.460938 20.71875 -4.890625 C 21.40625 -5.316406 21.945312 -5.882812 22.34375 -6.59375 C 22.738281 -7.3125 22.9375 -8.097656 22.9375 -8.953125 Z M 8.421875 -26.890625 L 8.421875 -17.71875 L 17.453125 -17.71875 C 18.273438 -17.71875 19.003906 -17.914062 19.640625 -18.3125 C 20.285156 -18.707031 20.796875 -19.25 21.171875 -19.9375 C 21.554688 -20.625 21.75 -21.40625 21.75 -22.28125 C 21.75 -23.1875 21.570312 -23.984375 21.21875 -24.671875 C 20.875 -25.359375 20.398438 -25.898438 19.796875 -26.296875 C 19.203125 -26.691406 18.507812 -26.890625 17.71875 -26.890625 Z M 8.421875 -26.890625 "/></g></g></g><g fill="#ffffff" fill-opacity="1"><g transform="translate(145.44984, 325.219352)"><g><path d="M 3.515625 0 L 3.515625 -31.140625 L 8.421875 -31.140625 L 8.421875 0 Z M 3.515625 0 "/></g></g></g><g fill="#ffffff" fill-opacity="1"><g transform="translate(161.588184, 325.219352)"><g><path d="M 5.796875 -31.140625 L 14.390625 -15.65625 L 23.0625 -31.140625 L 28.46875 -31.140625 L 16.84375 -11.140625 L 16.84375 0 L 11.9375 0 L 11.9375 -11.234375 L 0.390625 -31.140625 Z M 5.796875 -31.140625 "/></g></g></g><g fill="#ffffff" fill-opacity="1"><g transform="translate(194.609696, 325.219352)"><g><path d="M 16.453125 0.21875 C 14.191406 0.21875 12.15625 -0.21875 10.34375 -1.09375 C 8.53125 -1.96875 6.96875 -3.160156 5.65625 -4.671875 C 4.34375 -6.179688 3.328125 -7.878906 2.609375 -9.765625 C 1.890625 -11.648438 1.53125 -13.582031 1.53125 -15.5625 C 1.53125 -17.644531 1.910156 -19.628906 2.671875 -21.515625 C 3.429688 -23.398438 4.484375 -25.078125 5.828125 -26.546875 C 7.171875 -28.023438 8.753906 -29.195312 10.578125 -30.0625 C 12.410156 -30.925781 14.394531 -31.359375 16.53125 -31.359375 C 18.757812 -31.359375 20.785156 -30.90625 22.609375 -30 C 24.429688 -29.09375 25.992188 -27.878906 27.296875 -26.359375 C 28.597656 -24.835938 29.609375 -23.140625 30.328125 -21.265625 C 31.046875 -19.398438 31.40625 -17.488281 31.40625 -15.53125 C 31.40625 -13.445312 31.03125 -11.460938 30.28125 -9.578125 C 29.539062 -7.691406 28.492188 -6.007812 27.140625 -4.53125 C 25.796875 -3.0625 24.210938 -1.898438 22.390625 -1.046875 C 20.566406 -0.203125 18.585938 0.21875 16.453125 0.21875 Z M 6.53125 -15.5625 C 6.53125 -14.101562 6.765625 -12.6875 7.234375 -11.3125 C 7.703125 -9.9375 8.367188 -8.710938 9.234375 -7.640625 C 10.097656 -6.578125 11.140625 -5.738281 12.359375 -5.125 C 13.585938 -4.507812 14.960938 -4.203125 16.484375 -4.203125 C 18.066406 -4.203125 19.472656 -4.523438 20.703125 -5.171875 C 21.929688 -5.816406 22.960938 -6.6875 23.796875 -7.78125 C 24.628906 -8.882812 25.265625 -10.113281 25.703125 -11.46875 C 26.140625 -12.832031 26.359375 -14.195312 26.359375 -15.5625 C 26.359375 -17.03125 26.128906 -18.441406 25.671875 -19.796875 C 25.222656 -21.160156 24.5625 -22.375 23.6875 -23.4375 C 22.8125 -24.507812 21.765625 -25.351562 20.546875 -25.96875 C 19.335938 -26.582031 17.984375 -26.890625 16.484375 -26.890625 C 14.910156 -26.890625 13.507812 -26.566406 12.28125 -25.921875 C 11.050781 -25.273438 10.007812 -24.410156 9.15625 -23.328125 C 8.3125 -22.242188 7.660156 -21.03125 7.203125 -19.6875 C 6.753906 -18.34375 6.53125 -16.96875 6.53125 -15.5625 Z M 6.53125 -15.5625 "/></g></g></g><g fill="#ffffff" fill-opacity="1"><g transform="translate(231.797188, 325.219352)"><g><path d="M 16.234375 0.21875 C 14.179688 0.21875 12.265625 -0.203125 10.484375 -1.046875 C 8.703125 -1.898438 7.144531 -3.070312 5.8125 -4.5625 C 4.476562 -6.050781 3.4375 -7.742188 2.6875 -9.640625 C 1.945312 -11.546875 1.578125 -13.566406 1.578125 -15.703125 C 1.578125 -17.835938 1.945312 -19.835938 2.6875 -21.703125 C 3.4375 -23.578125 4.476562 -25.242188 5.8125 -26.703125 C 7.144531 -28.171875 8.707031 -29.3125 10.5 -30.125 C 12.300781 -30.945312 14.269531 -31.359375 16.40625 -31.359375 C 19.351562 -31.359375 21.84375 -30.734375 23.875 -29.484375 C 25.914062 -28.242188 27.445312 -26.601562 28.46875 -24.5625 L 24.6875 -21.84375 C 23.875 -23.539062 22.710938 -24.8125 21.203125 -25.65625 C 19.703125 -26.507812 18.054688 -26.9375 16.265625 -26.9375 C 14.804688 -26.9375 13.476562 -26.628906 12.28125 -26.015625 C 11.082031 -25.398438 10.050781 -24.554688 9.1875 -23.484375 C 8.320312 -22.421875 7.671875 -21.207031 7.234375 -19.84375 C 6.796875 -18.488281 6.578125 -17.0625 6.578125 -15.5625 C 6.578125 -13.988281 6.820312 -12.515625 7.3125 -11.140625 C 7.8125 -9.765625 8.515625 -8.554688 9.421875 -7.515625 C 10.335938 -6.484375 11.40625 -5.671875 12.625 -5.078125 C 13.851562 -4.492188 15.1875 -4.203125 16.625 -4.203125 C 18.320312 -4.203125 19.9375 -4.632812 21.46875 -5.5 C 23 -6.363281 24.441406 -7.660156 25.796875 -9.390625 L 25.796875 -4.390625 C 23.066406 -1.316406 19.878906 0.21875 16.234375 0.21875 Z M 25.3125 -12.109375 L 18.765625 -12.109375 L 18.765625 -15.75 L 29.4375 -15.75 L 29.4375 0 L 25.3125 0 Z M 25.3125 -12.109375 "/></g></g></g><g fill="#ffffff" fill-opacity="1"><g transform="translate(267.537556, 325.219352)"><g><path d="M 12.5 -31.140625 L 17.15625 -31.140625 L 29.25 0 L 24.078125 0 L 20.796875 -8.46875 L 8.765625 -8.46875 L 5.53125 0 L 0.3125 0 Z M 19.828125 -12.109375 L 14.828125 -25.75 L 9.65625 -12.109375 Z M 19.828125 -12.109375 "/></g></g></g><g fill="#ffffff" fill-opacity="1"><g transform="translate(101.287539, 271.710957)"><g><path d="M 29.46875 -186.84375 L 86.046875 -89.46875 L 143.15625 -186.84375 L 168.953125 -186.84375 L 97.890625 -68.15625 L 97.890625 0 L 74.203125 0 L 74.203125 -68.6875 L 3.421875 -186.84375 Z M 29.46875 -186.84375 "/></g></g></g><g fill="#ffffff" fill-opacity="1"><g transform="translate(276.591198, 54.961442)"><g><path d="M -27.546875 186.28125 L -89.203125 29.640625 L -150.59375 186.28125 L -175.515625 186.28125 L -99.953125 0 L -78.453125 0 L -2.625 186.28125 Z M -27.546875 186.28125 "/></g></g></g><path stroke-linecap="butt" transform="matrix(0.380295, -0.646433, 0.646433, 0.380295, 194.233996, 149.789023)" fill="none" stroke-linejoin="miter" d="M 0.00133122 6.997341 L 68.315694 6.998627 " stroke="#000000" stroke-width="14" stroke-opacity="1" stroke-miterlimit="4"/><path stroke-linecap="butt" transform="matrix(0.278542, -0.696358, 0.696358, 0.278542, 148.423178, 184.184446)" fill="none" stroke-linejoin="miter" d="M 0.00136229 6.998293 L 68.70864 7.0023 " stroke="#000000" stroke-width="14" stroke-opacity="1" stroke-miterlimit="4"/></svg>